HIERARCHY
ROOT Hips
{
	OFFSET 0.000000 0.000000 0.000000
	CHANNELS 6 Xposition Yposition Zposition Zrotation Yrotation Xrotation 
	JOINT LHipJoint
	{
		OFFSET 0.000000 0.000000 0.000000
		CHANNELS 3 Zrotation Yrotation Xrotation
		JOINT LeftUpLeg
		{
			OFFSET 1.363060 -1.794630 0.839290
			CHANNELS 3 Zrotation Yrotation Xrotation
			JOINT LeftLeg
			{
				OFFSET 2.448110 -6.726130 0.000000
				CHANNELS 3 Zrotation Yrotation Xrotation
				JOINT LeftFoot
				{
					OFFSET 2.562200 -7.039590 0.000000
					CHANNELS 3 Zrotation Yrotation Xrotation
					JOINT LeftToeBase
					{
						OFFSET 0.157640 -0.433110 2.322550
						CHANNELS 3 Zrotation Yrotation Xrotation
						End Site
						{
							OFFSET 0.000000 0.000000 0.000000
						}
					}
				}
			}
		}
	}
	JOINT RHipJoint
	{
		OFFSET 0.000000 0.000000 0.000000
		CHANNELS 3 Zrotation Yrotation Xrotation
		JOINT RightUpLeg
		{
			OFFSET -1.305520 -1.794630 0.839290
			CHANNELS 3 Zrotation Yrotation Xrotation
			JOINT RightLeg
			{
				OFFSET -2.542530 -6.985550 0.000000
				CHANNELS 3 Zrotation Yrotation Xrotation
				JOINT RightFoot
				{
					OFFSET -2.568260 -7.056230 0.000000
					CHANNELS 3 Zrotation Yrotation Xrotation
					JOINT RightToeBase
					{
						OFFSET -0.164730 -0.452590 2.363150
						CHANNELS 3 Zrotation Yrotation Xrotation
						End Site
						{
							OFFSET 0.000000 0.000000 0.000000
						}
					}
				}
			}
		}
	}
	JOINT LowerBack
	{
		OFFSET 0.000000 0.000000 0.000000
		CHANNELS 3 Zrotation Yrotation Xrotation
		JOINT Spine
		{
			OFFSET 0.028270 2.035590 -0.193380
			CHANNELS 3 Zrotation Yrotation Xrotation
			JOINT Spine1
			{
				OFFSET 0.056720 2.048850 -0.042750
				CHANNELS 3 Zrotation Yrotation Xrotation
				JOINT Neck
				{
					OFFSET 0.000000 0.000000 0.000000
					CHANNELS 3 Zrotation Yrotation Xrotation
					JOINT Neck1
					{
						OFFSET -0.054170 1.746240 0.172020
						CHANNELS 3 Zrotation Yrotation Xrotation
						JOINT Head
						{
							OFFSET 0.104070 1.761360 -0.123970
							CHANNELS 3 Zrotation Yrotation Xrotation
							End Site
							{
								OFFSET 0.000000 0.000000 0.000000
							}
						}
					}
				}
				JOINT LeftShoulder
				{
					OFFSET 0.000000 0.000000 0.000000
					CHANNELS 3 Zrotation Yrotation Xrotation
					JOINT LeftArm
					{
						OFFSET 3.362410 1.200890 -0.311210
						CHANNELS 3 Zrotation Yrotation Xrotation
						JOINT LeftForeArm
						{
							OFFSET 4.983000 -0.000000 -0.000000
							CHANNELS 3 Zrotation Yrotation Xrotation
							JOINT LeftHand
							{
								OFFSET 3.483560 -0.000000 -0.000000
								CHANNELS 3 Zrotation Yrotation Xrotation
								JOINT LeftFingerBase
								{
									OFFSET 0.000000 0.000000 0.000000
									CHANNELS 3 Zrotation Yrotation Xrotation
									JOINT LeftHandIndex1
									{
										OFFSET 0.715260 -0.000000 -0.000000
										CHANNELS 3 Zrotation Yrotation Xrotation
										End Site
										{
											OFFSET 0.000000 0.000000 0.000000
										}
									}
								}
								JOINT LThumb
								{
									OFFSET 0.000000 0.000000 0.000000
									CHANNELS 3 Zrotation Yrotation Xrotation
									End Site
									{
										OFFSET 0.000000 0.000000 0.000000
									}
								}
							}
						}
					}
				}
				JOINT RightShoulder
				{
					OFFSET 0.000000 0.000000 0.000000
					CHANNELS 3 Zrotation Yrotation Xrotation
					JOINT RightArm
					{
						OFFSET -3.136600 1.374050 -0.404650
						CHANNELS 3 Zrotation Yrotation Xrotation
						JOINT RightForeArm
						{
							OFFSET -5.241900 -0.000000 -0.000000
							CHANNELS 3 Zrotation Yrotation Xrotation
							JOINT RightHand
							{
								OFFSET -3.444170 -0.000000 -0.000000
								CHANNELS 3 Zrotation Yrotation Xrotation
								JOINT RightFingerBase
								{
									OFFSET 0.000000 0.000000 0.000000
									CHANNELS 3 Zrotation Yrotation Xrotation
									JOINT RightHandIndex1
									{
										OFFSET -0.622530 -0.000000 -0.000000
										CHANNELS 3 Zrotation Yrotation Xrotation
										End Site
										{
											OFFSET 0.000000 0.000000 0.000000
										}
									}
								}
								JOINT RThumb
								{
									OFFSET 0.000000 0.000000 0.000000
									CHANNELS 3 Zrotation Yrotation Xrotation
									End Site
									{
										OFFSET 0.000000 0.000000 0.000000
									}
								}
							}
						}
					}
				}
			}
		}
	}
}
MOTION
Frames: 7
Frame Time: 0.008333
-23.150139 17.482772 -1.336378 176.035197 81.616524 176.166948 0.683387 -3.385714 -1.682875 -16.632758 -3.787173 0.067199 0.377844 9.233620 22.787620 -1.319672 10.502297 -17.601433 0.053400 1.491200 4.101300 -7.335895 2.652157 -5.563471 24.196121 1.275659 4.198314 -1.178602 -9.166318 22.494232 -0.540750 -16.702923 -32.530755 -0.425600 -4.187100 11.603600 -2.510999 -1.303492 -5.935177 0.256969 -2.010410 -0.721453 2.697559 -1.202566 11.886097 -7.730822 -3.071347 -19.546255 5.372873 -1.738647 11.380139 1.603800 -0.898900 12.708000 -8.341272 -1.556905 -1.248564 -78.396390 0.594447 40.946321 11.479474 -26.531951 -3.274375 -0.421493 -0.116205 -5.061188 18.582575 -5.299218 -1.789800 -7.125000 0.000000 0.000000 -5.720800 24.479900 2.849600 10.629420 3.103913 -0.471006 69.693630 6.581049 17.670392 -6.350797 18.217534 -2.549031 0.586603 1.280589 -16.355479 18.473452 -32.905466 -10.099700 7.125000 0.000000 0.000000 53.494200 -56.107800 -18.185900 
-23.171877 17.480239 -1.353157 174.331468 81.524343 174.267421 0.697801 -3.350407 -1.652780 -17.035199 -3.900115 0.250876 0.362491 9.243534 22.744042 -1.345773 10.604859 -17.562302 0.058100 1.555800 4.279600 -7.264138 2.682171 -5.623637 23.472652 0.199085 4.004994 -1.218837 -9.173701 22.628302 -0.544164 -16.062455 -31.733504 -0.387500 -3.997200 11.068700 -2.556411 -1.286843 -5.432360 0.200856 -1.966963 -0.717847 2.541841 -1.157018 11.644105 -7.690958 -3.066181 -19.554866 5.348209 -1.752180 11.260795 1.584400 -0.907000 12.665000 -8.344856 -1.586039 -1.232467 -78.396890 0.479110 40.960938 11.415042 -26.418294 -3.245638 -0.401561 -0.090853 -4.871995 18.297871 -6.228427 -2.078900 -7.125000 0.000000 0.000000 -5.927200 23.492100 3.089200 10.588130 3.144375 -0.509828 70.013150 5.845587 20.546333 -6.917220 18.952047 -2.553369 0.731117 1.210597 -15.243763 13.972077 -31.521991 -7.088000 7.125000 0.000000 0.000000 47.969200 -56.007000 -15.446300 
-23.193405 17.479817 -1.369725 172.708006 81.426297 172.449635 0.714779 -3.318480 -1.625982 -17.433398 -3.988293 0.455453 0.342042 9.235759 22.654453 -1.375978 10.720425 -17.508473 0.062800 1.617200 4.448900 -7.190983 2.711784 -5.676275 22.735559 -0.943576 3.753867 -1.264943 -9.198228 22.808752 -0.573398 -15.310426 -31.005404 -0.351200 -3.807500 10.535600 -2.620685 -1.302815 -4.933951 0.164472 -1.971602 -0.714835 2.454471 -1.142381 11.418065 -7.690120 -3.029946 -19.593674 5.306704 -1.701740 11.171475 1.568400 -0.893500 12.642700 -8.338322 -1.613895 -1.221309 -78.460965 0.415493 41.020131 11.439739 -26.421318 -3.249783 -0.398449 -0.082534 -4.904873 18.338958 -6.400581 -2.144100 -7.125000 0.000000 0.000000 -5.896100 23.301300 3.098800 10.556567 3.181681 -0.543967 70.251522 5.192345 23.263876 -7.463853 19.630026 -2.576812 0.876839 1.114317 -13.868626 9.547417 -30.634943 -4.452300 7.125000 0.000000 0.000000 42.953200 -56.165000 -13.506500 
-23.210289 17.479395 -1.387769 170.994700 81.283617 170.561432 0.735469 -3.290186 -1.600080 -17.859111 -3.998580 0.630845 0.316655 9.213831 22.520791 -1.408449 10.829696 -17.396147 0.062100 1.608200 4.423900 -7.112929 2.747347 -5.725124 21.963934 -2.098218 3.530845 -1.308356 -9.210491 22.961551 -0.620811 -14.497817 -30.359295 -0.315300 -3.609800 9.981400 -2.697282 -1.361214 -4.505022 0.131435 -2.031281 -0.715290 2.370893 -1.156775 11.227995 -7.735390 -2.987081 -19.645526 5.269078 -1.618123 11.147915 1.570800 -0.868900 12.659900 -8.330596 -1.635098 -1.214423 -78.591108 0.362785 40.936692 11.439455 -26.398149 -3.246950 -0.398258 -0.079096 -4.922659 18.376231 -6.370728 -2.139900 -7.125000 0.000000 0.000000 -5.869500 23.327100 3.081100 10.522851 3.216522 -0.576036 70.469557 4.588097 25.819955 -7.981298 20.256322 -2.619881 1.022188 0.990757 -12.174859 5.135716 -30.147513 -2.030400 7.125000 0.000000 0.000000 38.235900 -56.577700 -12.069600 
-23.217570 17.473802 -1.408558 169.456635 81.419889 168.860649 0.748996 -3.264192 -1.578118 -18.213921 -3.830139 0.884727 0.291946 9.177240 22.371309 -1.381259 10.781797 -17.581800 0.071400 1.723900 4.743100 -7.058083 2.778890 -5.775759 21.195820 -3.438561 3.170151 -1.352899 -9.227940 23.113087 -0.639056 -13.509553 -29.301962 -0.246900 -3.197300 8.828400 -2.640128 -1.302483 -4.240353 0.077625 -1.944654 -0.698669 2.177374 -1.092110 11.134135 -7.702126 -2.962340 -19.702929 5.259593 -1.588513 11.146691 1.572200 -0.855300 12.686900 -8.333024 -1.649325 -1.202794 -78.628381 0.289613 40.854369 11.390077 -26.313970 -3.226072 -0.394585 -0.074601 -4.888884 18.285505 -6.511776 -2.177000 -7.125000 0.000000 0.000000 -5.936600 23.178900 3.137000 10.483814 3.241749 -0.609708 70.771792 3.897831 28.526699 -8.564037 20.966292 -2.712400 1.174151 0.830659 -10.180873 0.247908 -30.175045 0.533500 7.125000 0.000000 0.000000 33.383900 -57.475800 -11.016100 
-23.312860 17.496174 -1.432196 165.407110 82.896456 164.741330 0.749859 -3.212034 -1.552335 -18.777197 -3.776454 0.793945 0.245379 9.172463 22.201756 -1.741533 12.423069 -18.254517 0.051900 1.469700 4.042200 -7.058446 2.847108 -5.794304 20.634230 -3.367336 2.446538 -1.409182 -9.244745 23.255108 -0.573290 -12.735238 -27.762949 -0.205200 -2.916600 8.046700 -2.376724 -0.754947 -3.026258 -0.019660 -1.258810 -0.764055 1.906299 -0.698358 10.308801 -7.597690 -2.928872 -19.837928 5.238334 -1.566465 11.010073 1.540500 -0.842700 12.703300 -8.299430 -1.770525 -0.928470 -80.420389 -5.831900 34.929424 4.976417 -17.473944 -1.208993 -0.472449 0.193057 0.354182 19.638367 -10.726770 -3.959500 -7.125000 0.000000 0.000000 -4.911200 18.420000 3.119200 10.396997 3.395015 -0.702022 71.301445 2.765990 33.088464 -9.730175 22.335072 -3.046405 1.412048 0.537610 -6.416940 -8.674929 -32.018175 5.445900 7.125000 0.000000 0.000000 25.646000 -60.790600 -10.257100 
-23.357286 17.502294 -1.466070 162.027711 83.735833 161.168246 0.771726 -3.164744 -1.522902 -19.206787 -3.594870 0.908273 0.220672 9.163640 22.090780 -1.955207 13.377982 -18.582163 0.041000 1.306500 3.592400 -7.010050 2.906890 -5.834806 19.869176 -4.518804 1.875056 -1.456556 -9.231399 23.331719 -0.565658 -11.410025 -26.067345 -0.178800 -2.724000 7.511100 -2.004089 -0.438860 -2.208349 -0.110261 -0.874286 -0.811977 1.534726 -0.446293 9.693730 -7.520287 -2.839607 -19.738434 5.218641 -1.484096 10.910311 1.540300 -0.806600 12.674600 -8.308062 -1.818628 -0.971442 -80.208411 -5.067906 35.941553 5.755801 -18.546990 -1.398071 -0.466437 0.161987 -0.652039 19.554990 -10.123820 -3.717000 -7.125000 0.000000 0.000000 -4.965900 19.086300 3.080600 10.368009 3.458823 -0.692039 71.297633 2.711307 33.109788 -9.748707 22.357756 -3.060081 1.417884 0.547712 -6.408545 -8.313012 -32.144712 5.272400 7.125000 0.000000 0.000000 26.141600 -60.830000 -10.495900 
